<svg xmlns="http://www.w3.org/2000/svg" xmlns:xlink="http://www.w3.org/1999/xlink" width="500" zoomAndPan="magnify" viewBox="0 0 375 374.999991" height="500" preserveAspectRatio="xMidYMid meet" version="1.2"><defs><clipPath id="25c0e4b704"><path d="M 2 18.75 L 346 18.75 L 346 356.25 L 2 356.25 Z M 2 18.75 "/></clipPath><clipPath id="e8ac32211c"><path d="M 2 18.75 L 321 18.75 L 321 232 L 2 232 Z M 2 18.75 "/></clipPath><clipPath id="37bb4f10d0"><path d="M 51 81 L 346 81 L 346 356.25 L 51 356.25 Z M 51 81 "/></clipPath></defs><g id="680d0835d0"><g clip-rule="nonzero" clip-path="url(#25c0e4b704)"><path style=" stroke:none;fill-rule:nonzero;fill:#ffeeda;fill-opacity:1;" d="M 320.457031 248.050781 L 320.457031 48.714844 C 320.039062 32.066406 306.722656 18.75 290.078125 18.75 L 82.832031 18.75 C 37.890625 19.582031 2.097656 56.203125 2.097656 101.148438 C 2.097656 116.128906 6.261719 129.445312 12.503906 140.683594 C 17.914062 150.253906 26.238281 158.992188 34.144531 165.652344 C 36.640625 167.734375 35.390625 166.902344 42.464844 171.0625 C 52.039062 176.886719 63.273438 179.800781 63.273438 179.800781 L 63.273438 298.820312 C 63.691406 304.648438 64.105469 310.058594 65.769531 315.050781 C 70.347656 331.695312 82 344.597656 97.816406 350.839844 C 104.472656 353.335938 111.964844 355 119.871094 355.417969 L 285.082031 356.25 C 317.960938 356.25 345.007812 329.617188 345.007812 296.324219 C 345.007812 276.765625 335.4375 258.871094 320.457031 248.050781 Z M 320.457031 248.050781 "/></g><path style=" stroke:none;fill-rule:nonzero;fill:#ebc28e;fill-opacity:1;" d="M 324.617188 297.574219 C 323.785156 318.796875 306.308594 335.859375 285.082031 335.859375 L 171.058594 335.441406 C 180.214844 325.039062 185.621094 311.304688 185.621094 296.324219 C 185.621094 273.019531 171.890625 256.789062 171.890625 256.789062 L 285.5 256.789062 C 307.140625 256.789062 325.035156 274.683594 325.035156 296.324219 Z M 324.617188 297.574219 "/><g clip-rule="nonzero" clip-path="url(#e8ac32211c)"><path style=" stroke:none;fill-rule:nonzero;fill:#101010;fill-opacity:1;" d="M 44.964844 149.003906 C 31.644531 136.519531 22.492188 120.292969 22.492188 101.148438 L 22.492188 99.066406 C 23.738281 66.609375 50.375 39.972656 82.832031 39.140625 L 290.492188 39.140625 C 295.902344 39.558594 300.066406 43.304688 300.066406 48.714844 L 300.066406 224.746094 C 304.644531 225.578125 307.140625 226.410156 311.71875 227.660156 C 315.460938 228.90625 320.457031 231.820312 320.457031 231.820312 L 320.457031 48.714844 C 320.039062 32.066406 306.722656 18.75 290.078125 18.75 L 82.832031 18.75 C 37.890625 19.582031 2.097656 56.203125 2.097656 101.148438 C 2.097656 127.367188 14.167969 149.839844 33.3125 165.234375 C 34.558594 166.484375 35.808594 167.734375 39.554688 167.734375 C 45.796875 167.734375 49.957031 162.738281 49.539062 157.746094 C 49.539062 153.167969 47.875 151.503906 44.964844 149.003906 Z M 44.964844 149.003906 "/></g><g clip-rule="nonzero" clip-path="url(#37bb4f10d0)"><path style=" stroke:none;fill-rule:nonzero;fill:#101010;fill-opacity:1;" d="M 285.082031 236.398438 L 122.367188 236.398438 C 111.546875 236.398438 102.808594 245.136719 102.808594 256.375 L 102.808594 279.679688 C 103.226562 290.496094 112.378906 299.652344 123.199219 299.652344 L 135.269531 299.652344 L 135.269531 279.679688 L 123.199219 279.679688 L 123.199219 256.789062 C 123.199219 256.789062 126.113281 256.789062 129.859375 256.789062 C 150.25 256.789062 165.648438 275.933594 165.648438 296.324219 C 165.648438 314.632812 149 337.523438 121.535156 335.859375 C 96.984375 334.195312 83.664062 312.554688 83.664062 296.324219 L 83.664062 97.820312 C 83.664062 89.078125 76.175781 81.589844 67.4375 81.589844 L 51.207031 81.589844 L 51.207031 101.980469 L 63.273438 101.980469 L 63.273438 296.738281 C 62.441406 336.273438 91.574219 356.25 121.535156 356.25 L 285.5 356.667969 C 318.375 356.667969 345.425781 330.03125 345.425781 296.738281 C 345.007812 263.449219 318.375 236.398438 285.082031 236.398438 Z M 324.617188 297.574219 C 323.785156 318.796875 306.308594 335.859375 285.082031 335.859375 L 171.058594 335.441406 C 180.214844 325.039062 185.621094 311.304688 185.621094 296.324219 C 185.621094 273.019531 171.890625 256.789062 171.890625 256.789062 L 285.5 256.789062 C 307.140625 256.789062 325.035156 274.683594 325.035156 296.324219 Z M 324.617188 297.574219 "/></g><path style=" stroke:none;fill-rule:nonzero;fill:#101010;fill-opacity:1;" d="M 241.386719 105.308594 L 118.621094 105.308594 L 118.621094 85.335938 L 241.386719 85.335938 C 246.796875 85.335938 251.375 89.914062 251.375 95.320312 C 251.375 100.730469 247.214844 105.308594 241.386719 105.308594 Z M 241.386719 105.308594 "/><path style=" stroke:none;fill-rule:nonzero;fill:#101010;fill-opacity:1;" d="M 241.386719 201.023438 L 118.621094 201.023438 L 118.621094 180.632812 L 241.386719 180.632812 C 246.796875 180.632812 251.375 185.210938 251.375 190.621094 C 251.375 196.449219 247.214844 201.023438 241.386719 201.023438 Z M 241.386719 201.023438 "/><path style=" stroke:none;fill-rule:nonzero;fill:#101010;fill-opacity:1;" d="M 263.027344 153.167969 L 118.621094 153.167969 L 118.621094 132.777344 L 263.027344 132.777344 C 268.4375 132.777344 273.015625 137.355469 273.015625 142.761719 C 273.015625 148.589844 268.4375 153.167969 263.027344 153.167969 Z M 263.027344 153.167969 "/></g></svg>